<?xml version="1.0" encoding="UTF-8"?>
<!DOCTYPE svg PUBLIC "-//W3C//DTD SVG 1.1//EN" "http://www.w3.org/Graphics/SVG/1.1/DTD/svg11.dtd">
<svg xmlns="http://www.w3.org/2000/svg" version="1.1" width="64px" height="64px" style="shape-rendering:geometricPrecision; text-rendering:geometricPrecision; image-rendering:optimizeQuality; fill-rule:evenodd; clip-rule:evenodd" xmlns:xlink="http://www.w3.org/1999/xlink">
<g><path style="opacity:0.008" fill="#feff00" d="M 13.5,-0.5 C 14.1667,-0.5 14.8333,-0.5 15.5,-0.5C 15.5,0.166667 15.5,0.833333 15.5,1.5C 14.8333,1.5 14.1667,1.5 13.5,1.5C 13.5,0.833333 13.5,0.166667 13.5,-0.5 Z"/></g>
<g><path style="opacity:0.004" fill="#feff00" d="M 45.5,-0.5 C 46.8333,-0.5 48.1667,-0.5 49.5,-0.5C 49.5,0.166667 49.5,0.833333 49.5,1.5C 48.1667,1.5 46.8333,1.5 45.5,1.5C 45.5,0.833333 45.5,0.166667 45.5,-0.5 Z"/></g>
<g><path style="opacity:0.004" fill="#feff00" d="M 13.5,1.5 C 13.5,2.16667 13.5,2.83333 13.5,3.5C 10.8333,2.83333 10.8333,2.16667 13.5,1.5 Z"/></g>
<g><path style="opacity:0.996" fill="#fec11d" d="M 21.5,-0.5 C 28.1667,-0.5 34.8333,-0.5 41.5,-0.5C 42.1834,1.17649 43.5168,1.84316 45.5,1.5C 46.1834,3.17649 47.5168,3.84316 49.5,3.5C 49.5,4.83333 50.1667,5.5 51.5,5.5C 51.5,6.83333 52.1667,7.5 53.5,7.5C 54.1667,9.5 55.5,10.8333 57.5,11.5C 57.5,12.1667 57.5,12.8333 57.5,13.5C 57.5,14.1667 57.5,14.8333 57.5,15.5C 53.0008,16.7604 49.0008,18.7604 45.5,21.5C 43.5168,21.1568 42.1834,21.8235 41.5,23.5C 39.5168,23.1568 38.1834,23.8235 37.5,25.5C 35.5168,25.1568 34.1834,25.8235 33.5,27.5C 31.5168,27.1568 30.1834,27.8235 29.5,29.5C 27.5168,29.1568 26.1834,29.8235 25.5,31.5C 23.5168,31.1568 22.1834,31.8235 21.5,33.5C 20.1667,33.5 19.5,34.1667 19.5,35.5C 17.5168,35.1568 16.1834,35.8235 15.5,37.5C 13.5168,37.1568 12.1834,37.8235 11.5,39.5C 10.1667,39.5 9.5,40.1667 9.5,41.5C 7.51676,41.1568 6.18342,41.8235 5.5,43.5C 3.28209,43.3862 1.28209,42.7196 -0.5,41.5C -0.5,34.1667 -0.5,26.8333 -0.5,19.5C 1.17649,18.8166 1.84316,17.4832 1.5,15.5C 4.16667,14.8333 4.16667,14.1667 1.5,13.5C 2.83333,12.1667 4.16667,10.8333 5.5,9.5C 6.83333,9.5 7.5,8.83333 7.5,7.5C 8.83333,7.5 9.5,6.83333 9.5,5.5C 11.4832,5.84316 12.8166,5.17649 13.5,3.5C 14.8333,3.5 15.5,2.83333 15.5,1.5C 18.0821,1.97461 20.0821,1.30794 21.5,-0.5 Z"/></g>
<g><path style="opacity:0.008" fill="#fe8000" d="M 49.5,1.5 C 50.8333,1.5 51.5,2.16667 51.5,3.5C 50.8333,3.5 50.1667,3.5 49.5,3.5C 49.5,2.83333 49.5,2.16667 49.5,1.5 Z"/></g>
<g><path style="opacity:0.004" fill="#feff00" d="M 9.5,5.5 C 8.83333,5.5 8.16667,5.5 7.5,5.5C 8.16667,2.83333 8.83333,2.83333 9.5,5.5 Z"/></g>
<g><path style="opacity:0.008" fill="#fe8000" d="M 51.5,3.5 C 52.8333,3.5 53.5,4.16667 53.5,5.5C 52.8333,5.5 52.1667,5.5 51.5,5.5C 51.5,4.83333 51.5,4.16667 51.5,3.5 Z"/></g>
<g><path style="opacity:0.004" fill="#feff00" d="M 7.5,5.5 C 7.5,6.16667 7.5,6.83333 7.5,7.5C 6.83333,7.5 6.16667,7.5 5.5,7.5C 5.5,6.16667 6.16667,5.5 7.5,5.5 Z"/></g>
<g><path style="opacity:0.004" fill="#fe0000" d="M 53.5,5.5 C 56.1667,6.16667 56.1667,6.83333 53.5,7.5C 53.5,6.83333 53.5,6.16667 53.5,5.5 Z"/></g>
<g><path style="opacity:0.004" fill="#fe0000" d="M 5.5,7.5 C 5.5,8.16667 5.5,8.83333 5.5,9.5C 2.83333,8.83333 2.83333,8.16667 5.5,7.5 Z"/></g>
<g><path style="opacity:0.004" fill="#feff00" d="M 57.5,11.5 C 57.6395,9.66298 58.3061,9.32964 59.5,10.5C 59.0431,11.2975 58.3764,11.6309 57.5,11.5 Z"/></g>
<g><path style="opacity:0.008" fill="#fe8000" d="M -0.5,13.5 C 0.166667,13.5 0.833333,13.5 1.5,13.5C 1.5,14.1667 1.5,14.8333 1.5,15.5C 0.833333,15.5 0.166667,15.5 -0.5,15.5C -0.5,14.8333 -0.5,14.1667 -0.5,13.5 Z"/></g>
<g><path style="opacity:0.004" fill="#fe0000" d="M 57.5,13.5 C 60.1667,14.1667 60.1667,14.8333 57.5,15.5C 57.5,14.8333 57.5,14.1667 57.5,13.5 Z"/></g>
<g><path style="opacity:0.012" fill="#feaa00" d="M 51.5,19.5 C 53.337,19.6395 53.6704,20.3061 52.5,21.5C 51.7025,21.0431 51.3691,20.3764 51.5,19.5 Z"/></g>
<g><path style="opacity:0.008" fill="#fe8000" d="M 45.5,21.5 C 50.8333,22.1667 50.8333,22.8333 45.5,23.5C 45.5,22.8333 45.5,22.1667 45.5,21.5 Z"/></g>
<g><path style="opacity:0.004" fill="#ffe3ff" d="M 41.5,23.5 C 42.8333,23.5 44.1667,23.5 45.5,23.5C 44.8166,25.1765 43.4832,25.8432 41.5,25.5C 41.5,24.8333 41.5,24.1667 41.5,23.5 Z"/></g>
<g><path style="opacity:0.012" fill="#feaa00" d="M 37.5,25.5 C 38.1667,25.5 38.8333,25.5 39.5,25.5C 39.5,26.1667 39.5,26.8333 39.5,27.5C 38.8333,27.5 38.1667,27.5 37.5,27.5C 37.5,26.8333 37.5,26.1667 37.5,25.5 Z"/></g>
<g><path style="opacity:0.004" fill="#fe0000" d="M 39.5,25.5 C 40.1667,25.5 40.8333,25.5 41.5,25.5C 41.5,26.8333 40.8333,27.5 39.5,27.5C 39.5,26.8333 39.5,26.1667 39.5,25.5 Z"/></g>
<g><path style="opacity:0.004" fill="#feff00" d="M 55.5,25.5 C 55.5,26.1667 55.5,26.8333 55.5,27.5C 52.8333,26.8333 52.8333,26.1667 55.5,25.5 Z"/></g>
<g><path style="opacity:0.012" fill="#ff9c00" d="M 55.5,25.5 C 56.8333,25.5 58.1667,25.5 59.5,25.5C 59.5,26.1667 59.5,26.8333 59.5,27.5C 58.1667,27.5 56.8333,27.5 55.5,27.5C 55.5,26.8333 55.5,26.1667 55.5,25.5 Z"/></g>
<g><path style="opacity:0.008" fill="#feff00" d="M 59.5,25.5 C 62.1667,26.1667 62.1667,26.8333 59.5,27.5C 59.5,26.8333 59.5,26.1667 59.5,25.5 Z"/></g>
<g><path style="opacity:0.012" fill="#feaa00" d="M 33.5,27.5 C 34.1667,27.5 34.8333,27.5 35.5,27.5C 35.5,28.1667 35.5,28.8333 35.5,29.5C 34.8333,29.5 34.1667,29.5 33.5,29.5C 33.5,28.8333 33.5,28.1667 33.5,27.5 Z"/></g>
<g><path style="opacity:0.004" fill="#fe0000" d="M 35.5,27.5 C 36.1667,27.5 36.8333,27.5 37.5,27.5C 37.5,28.1667 37.5,28.8333 37.5,29.5C 36.8333,29.5 36.1667,29.5 35.5,29.5C 35.5,28.8333 35.5,28.1667 35.5,27.5 Z"/></g>
<g><path style="opacity:0.004" fill="#fe0000" d="M 45.5,27.5 C 45.5,28.1667 45.5,28.8333 45.5,29.5C 42.8333,28.8333 42.8333,28.1667 45.5,27.5 Z"/></g>
<g><path style="opacity:0.012" fill="#ffd5ff" d="M 45.5,27.5 C 48.0821,27.0254 50.0821,27.6921 51.5,29.5C 49.5,29.5 47.5,29.5 45.5,29.5C 45.5,28.8333 45.5,28.1667 45.5,27.5 Z"/></g>
<g><path style="opacity:0.008" fill="#feff00" d="M 29.5,29.5 C 30.1667,29.5 30.8333,29.5 31.5,29.5C 31.5,30.1667 31.5,30.8333 31.5,31.5C 30.8333,31.5 30.1667,31.5 29.5,31.5C 29.5,30.8333 29.5,30.1667 29.5,29.5 Z"/></g>
<g><path style="opacity:0.004" fill="#fe0000" d="M 31.5,29.5 C 32.1667,29.5 32.8333,29.5 33.5,29.5C 33.5,30.1667 33.5,30.8333 33.5,31.5C 32.8333,31.5 32.1667,31.5 31.5,31.5C 31.5,30.8333 31.5,30.1667 31.5,29.5 Z"/></g>
<g><path style="opacity:0.012" fill="#ff9c00" d="M 37.5,29.5 C 38.9778,29.238 40.3112,29.5713 41.5,30.5C 40.8333,30.8333 40.1667,31.1667 39.5,31.5C 38.2867,31.2528 37.62,30.5862 37.5,29.5 Z"/></g>
<g><path style="opacity:0.004" fill="#fe0000" d="M 61.5,29.5 C 62.1667,29.5 62.8333,29.5 63.5,29.5C 63.5,30.1667 63.5,30.8333 63.5,31.5C 62.1667,31.5 61.5,30.8333 61.5,29.5 Z"/></g>
<g><path style="opacity:0.008" fill="#feff00" d="M 31.5,31.5 C 32.1667,31.5 32.8333,31.5 33.5,31.5C 34.8333,31.5 35.5,32.1667 35.5,33.5C 33.5168,33.8432 32.1834,33.1765 31.5,31.5 Z"/></g>
<g><path style="opacity:0.946" fill="#fec21d" d="M 51.5,29.5 C 54.8333,29.5 58.1667,29.5 61.5,29.5C 61.5,30.8333 62.1667,31.5 63.5,31.5C 63.5,34.1667 63.5,36.8333 63.5,39.5C 62.1667,39.5 60.8333,39.5 59.5,39.5C 59.762,38.0222 59.4287,36.6888 58.5,35.5C 56.9991,36.7515 55.3325,37.7515 53.5,38.5C 42.7118,41.9844 32.0451,45.6511 21.5,49.5C 21.5,50.8333 21.5,52.1667 21.5,53.5C 24.1667,54.1667 26.8333,54.8333 29.5,55.5C 29.5,57.5 29.5,59.5 29.5,61.5C 26.9179,61.0254 24.9179,61.6921 23.5,63.5C 22.1667,63.5 20.8333,63.5 19.5,63.5C 18.8166,61.8235 17.4832,61.1568 15.5,61.5C 14.8166,59.8235 13.4832,59.1568 11.5,59.5C 11.5,58.1667 10.8333,57.5 9.5,57.5C 9.5,56.1667 8.83333,55.5 7.5,55.5C 7.5,54.1667 6.83333,53.5 5.5,53.5C 5.5,51.5 5.5,49.5 5.5,47.5C 6.83333,47.5 7.5,46.8333 7.5,45.5C 9.48324,45.8432 10.8166,45.1765 11.5,43.5C 13.4832,43.8432 14.8166,43.1765 15.5,41.5C 17.4832,41.8432 18.8166,41.1765 19.5,39.5C 23.6058,39.6959 26.9392,38.3625 29.5,35.5C 32.0821,35.9746 34.0821,35.3079 35.5,33.5C 41.3563,33.3697 46.6897,32.0364 51.5,29.5 Z"/></g>
<g><path style="opacity:0.012" fill="#ffb0ff" d="M 25.5,31.5 C 26.8333,31.5 28.1667,31.5 29.5,31.5C 29.5,32.8333 29.5,34.1667 29.5,35.5C 26.0678,35.7573 22.7345,36.424 19.5,37.5C 19.5,36.8333 19.5,36.1667 19.5,35.5C 20.8333,35.5 21.5,34.8333 21.5,33.5C 23.4832,33.8432 24.8166,33.1765 25.5,31.5 Z"/></g>
<g><path style="opacity:0.012" fill="#ffe900" d="M 15.5,37.5 C 16.8333,37.5 18.1667,37.5 19.5,37.5C 19.5,38.1667 19.5,38.8333 19.5,39.5C 18.1667,39.5 16.8333,39.5 15.5,39.5C 15.5,38.8333 15.5,38.1667 15.5,37.5 Z"/></g>
<g><path style="opacity:0.016" fill="#ffd400" d="M 11.5,39.5 C 12.8333,39.5 14.1667,39.5 15.5,39.5C 15.5,40.1667 15.5,40.8333 15.5,41.5C 14.1667,41.5 12.8333,41.5 11.5,41.5C 11.5,40.8333 11.5,40.1667 11.5,39.5 Z"/></g>
<g><path style="opacity:0.989" fill="#fec21d" d="M 63.5,39.5 C 63.5,40.1667 63.5,40.8333 63.5,41.5C 61.8235,42.1834 61.1568,43.5168 61.5,45.5C 61.5,46.1667 61.5,46.8333 61.5,47.5C 60.1667,47.5 59.5,48.1667 59.5,49.5C 56.8333,50.1667 56.8333,50.8333 59.5,51.5C 58.1667,52.8333 56.8333,54.1667 55.5,55.5C 54.1667,55.5 53.5,56.1667 53.5,57.5C 50.4461,57.354 48.4461,58.6874 47.5,61.5C 45.5168,61.1568 44.1834,61.8235 43.5,63.5C 36.8333,63.5 30.1667,63.5 23.5,63.5C 24.9179,61.6921 26.9179,61.0254 29.5,61.5C 29.5,59.5 29.5,57.5 29.5,55.5C 26.8333,54.8333 24.1667,54.1667 21.5,53.5C 21.5,52.1667 21.5,50.8333 21.5,49.5C 32.0451,45.6511 42.7118,41.9844 53.5,38.5C 55.3325,37.7515 56.9991,36.7515 58.5,35.5C 59.4287,36.6888 59.762,38.0222 59.5,39.5C 60.8333,39.5 62.1667,39.5 63.5,39.5 Z"/></g>
<g><path style="opacity:0.02" fill="#fecc00" d="M 9.5,41.5 C 10.1667,41.5 10.8333,41.5 11.5,41.5C 11.5,42.1667 11.5,42.8333 11.5,43.5C 10.1667,43.5 9.5,42.8333 9.5,41.5 Z"/></g>
<g><path style="opacity:0.004" fill="#feff00" d="M 5.5,43.5 C 6.83333,43.5 7.5,44.1667 7.5,45.5C 6.83333,45.5 6.16667,45.5 5.5,45.5C 5.5,44.8333 5.5,44.1667 5.5,43.5 Z"/></g>
<g><path style="opacity:0.006" fill="#ffe3ff" d="M 5.5,45.5 C 5.5,46.1667 5.5,46.8333 5.5,47.5C 3.69206,48.9179 3.02539,50.9179 3.5,53.5C 1.63105,51.3647 0.964383,48.6981 1.5,45.5C 2.83333,45.5 4.16667,45.5 5.5,45.5 Z"/></g>
<g><path style="opacity:0.008" fill="#ff66ff" d="M 61.5,45.5 C 62.1667,45.5 62.8333,45.5 63.5,45.5C 63.5,46.8333 63.5,48.1667 63.5,49.5C 62.8333,49.5 62.1667,49.5 61.5,49.5C 61.5,48.8333 61.5,48.1667 61.5,47.5C 61.5,46.8333 61.5,46.1667 61.5,45.5 Z"/></g>
<g><path style="opacity:0.008" fill="#fe8000" d="M 59.5,49.5 C 60.1667,49.5 60.8333,49.5 61.5,49.5C 61.5,50.8333 60.8333,51.5 59.5,51.5C 59.5,50.8333 59.5,50.1667 59.5,49.5 Z"/></g>
<g><path style="opacity:0.004" fill="#fe0000" d="M 3.5,53.5 C 4.16667,53.5 4.83333,53.5 5.5,53.5C 5.5,54.1667 5.5,54.8333 5.5,55.5C 4.16667,55.5 3.5,54.8333 3.5,53.5 Z"/></g>
<g><path style="opacity:0.008" fill="#fe8000" d="M 5.5,55.5 C 6.16667,55.5 6.83333,55.5 7.5,55.5C 7.5,56.1667 7.5,56.8333 7.5,57.5C 6.16667,57.5 5.5,56.8333 5.5,55.5 Z"/></g>
<g><path style="opacity:0.004" fill="#feff00" d="M 55.5,55.5 C 58.1667,56.1667 58.1667,56.8333 55.5,57.5C 55.5,56.8333 55.5,56.1667 55.5,55.5 Z"/></g>
<g><path style="opacity:0.008" fill="#fe8000" d="M 7.5,57.5 C 8.16667,57.5 8.83333,57.5 9.5,57.5C 9.5,58.1667 9.5,58.8333 9.5,59.5C 8.16667,59.5 7.5,58.8333 7.5,57.5 Z"/></g>
<g><path style="opacity:0.004" fill="#feff00" d="M 53.5,57.5 C 54.1667,57.5 54.8333,57.5 55.5,57.5C 55.5,58.8333 54.8333,59.5 53.5,59.5C 53.5,58.8333 53.5,58.1667 53.5,57.5 Z"/></g>
<g><path style="opacity:0.008" fill="#fe8000" d="M 9.5,59.5 C 10.1667,59.5 10.8333,59.5 11.5,59.5C 11.5,60.1667 11.5,60.8333 11.5,61.5C 10.1667,61.5 9.5,60.8333 9.5,59.5 Z"/></g>
<g><path style="opacity:0.004" fill="#fe0000" d="M 53.5,59.5 C 53.3605,61.337 52.6939,61.6704 51.5,60.5C 51.9569,59.7025 52.6236,59.3691 53.5,59.5 Z"/></g>
<g><path style="opacity:0.004" fill="#feff00" d="M 11.5,61.5 C 12.8333,61.5 14.1667,61.5 15.5,61.5C 15.5,62.1667 15.5,62.8333 15.5,63.5C 14.1667,63.5 12.8333,63.5 11.5,63.5C 11.5,62.8333 11.5,62.1667 11.5,61.5 Z"/></g>
<g><path style="opacity:0.012" fill="#feaa00" d="M 47.5,61.5 C 48.8333,61.5 49.5,62.1667 49.5,63.5C 48.8333,63.5 48.1667,63.5 47.5,63.5C 47.5,62.8333 47.5,62.1667 47.5,61.5 Z"/></g>
</svg>
